<mxfile host="app.diagrams.net" agent="Mozilla/5.0 (Windows NT 10.0; Win64; x64) AppleWebKit/537.36 (KHTML, like Gecko) Chrome/140.0.0.0 Safari/537.36" version="28.2.5">
  <diagram name="Página-1" id="zMhko25kuJdaVbV65YMQ">
    <mxGraphModel dx="1426" dy="777" grid="1" gridSize="10" guides="1" tooltips="1" connect="1" arrows="1" fold="1" page="1" pageScale="1" pageWidth="827" pageHeight="1169" math="0" shadow="0">
      <root>
        <mxCell id="0" />
        <mxCell id="1" parent="0" />
        <mxCell id="Ii5o0wG8CZ3HwWFto0RK-1" value="&lt;font style=&quot;font-size: 18px;&quot;&gt;Realiza Voto&lt;/font&gt;" style="text;html=1;align=center;verticalAlign=middle;resizable=0;points=[];autosize=1;strokeColor=none;fillColor=none;" vertex="1" parent="1">
          <mxGeometry x="330" y="43" width="120" height="40" as="geometry" />
        </mxCell>
        <mxCell id="Ii5o0wG8CZ3HwWFto0RK-3" style="edgeStyle=orthogonalEdgeStyle;rounded=0;orthogonalLoop=1;jettySize=auto;html=1;" edge="1" parent="1" source="Ii5o0wG8CZ3HwWFto0RK-2" target="Ii5o0wG8CZ3HwWFto0RK-4">
          <mxGeometry relative="1" as="geometry">
            <mxPoint x="220" y="155" as="targetPoint" />
          </mxGeometry>
        </mxCell>
        <mxCell id="Ii5o0wG8CZ3HwWFto0RK-2" value="" style="ellipse;fillColor=strokeColor;html=1;" vertex="1" parent="1">
          <mxGeometry x="140" y="140" width="30" height="30" as="geometry" />
        </mxCell>
        <mxCell id="Ii5o0wG8CZ3HwWFto0RK-5" style="edgeStyle=orthogonalEdgeStyle;rounded=0;orthogonalLoop=1;jettySize=auto;html=1;" edge="1" parent="1" source="Ii5o0wG8CZ3HwWFto0RK-4" target="Ii5o0wG8CZ3HwWFto0RK-6">
          <mxGeometry relative="1" as="geometry">
            <mxPoint x="270" y="230" as="targetPoint" />
          </mxGeometry>
        </mxCell>
        <mxCell id="Ii5o0wG8CZ3HwWFto0RK-4" value="eleitor digita o número do candidato" style="rounded=1;whiteSpace=wrap;html=1;" vertex="1" parent="1">
          <mxGeometry x="210" y="125" width="120" height="60" as="geometry" />
        </mxCell>
        <mxCell id="Ii5o0wG8CZ3HwWFto0RK-8" style="edgeStyle=orthogonalEdgeStyle;rounded=0;orthogonalLoop=1;jettySize=auto;html=1;" edge="1" parent="1" source="Ii5o0wG8CZ3HwWFto0RK-6" target="Ii5o0wG8CZ3HwWFto0RK-7">
          <mxGeometry relative="1" as="geometry" />
        </mxCell>
        <mxCell id="Ii5o0wG8CZ3HwWFto0RK-6" value="urna mostra as informações do número digitado&amp;nbsp;" style="rounded=1;whiteSpace=wrap;html=1;" vertex="1" parent="1">
          <mxGeometry x="210" y="220" width="120" height="60" as="geometry" />
        </mxCell>
        <mxCell id="Ii5o0wG8CZ3HwWFto0RK-34" style="edgeStyle=orthogonalEdgeStyle;rounded=0;orthogonalLoop=1;jettySize=auto;html=1;entryX=0.5;entryY=0;entryDx=0;entryDy=0;" edge="1" parent="1" source="Ii5o0wG8CZ3HwWFto0RK-7" target="Ii5o0wG8CZ3HwWFto0RK-28">
          <mxGeometry relative="1" as="geometry" />
        </mxCell>
        <mxCell id="Ii5o0wG8CZ3HwWFto0RK-7" value="confirma voto" style="rounded=1;whiteSpace=wrap;html=1;" vertex="1" parent="1">
          <mxGeometry x="210" y="310" width="120" height="60" as="geometry" />
        </mxCell>
        <mxCell id="Ii5o0wG8CZ3HwWFto0RK-27" style="edgeStyle=orthogonalEdgeStyle;rounded=0;orthogonalLoop=1;jettySize=auto;html=1;entryX=0;entryY=0.5;entryDx=0;entryDy=0;" edge="1" parent="1" source="Ii5o0wG8CZ3HwWFto0RK-10" target="Ii5o0wG8CZ3HwWFto0RK-14">
          <mxGeometry relative="1" as="geometry" />
        </mxCell>
        <mxCell id="Ii5o0wG8CZ3HwWFto0RK-10" value="urna emite um som de confirmação" style="rounded=1;whiteSpace=wrap;html=1;" vertex="1" parent="1">
          <mxGeometry x="210" y="510" width="120" height="60" as="geometry" />
        </mxCell>
        <mxCell id="Ii5o0wG8CZ3HwWFto0RK-17" style="edgeStyle=orthogonalEdgeStyle;rounded=0;orthogonalLoop=1;jettySize=auto;html=1;" edge="1" parent="1" source="Ii5o0wG8CZ3HwWFto0RK-14" target="Ii5o0wG8CZ3HwWFto0RK-18">
          <mxGeometry relative="1" as="geometry">
            <mxPoint x="540" y="430" as="targetPoint" />
          </mxGeometry>
        </mxCell>
        <mxCell id="Ii5o0wG8CZ3HwWFto0RK-14" value="tem mais votos para realizar&amp;nbsp;" style="rounded=1;whiteSpace=wrap;html=1;" vertex="1" parent="1">
          <mxGeometry x="380" y="510" width="120" height="60" as="geometry" />
        </mxCell>
        <mxCell id="Ii5o0wG8CZ3HwWFto0RK-19" style="edgeStyle=orthogonalEdgeStyle;rounded=0;orthogonalLoop=1;jettySize=auto;html=1;entryX=1;entryY=0.5;entryDx=0;entryDy=0;" edge="1" parent="1" source="Ii5o0wG8CZ3HwWFto0RK-18" target="Ii5o0wG8CZ3HwWFto0RK-4">
          <mxGeometry relative="1" as="geometry">
            <mxPoint x="565" y="150" as="targetPoint" />
            <Array as="points">
              <mxPoint x="565" y="155" />
            </Array>
          </mxGeometry>
        </mxCell>
        <mxCell id="Ii5o0wG8CZ3HwWFto0RK-20" value="Sim" style="edgeLabel;html=1;align=center;verticalAlign=middle;resizable=0;points=[];" vertex="1" connectable="0" parent="Ii5o0wG8CZ3HwWFto0RK-19">
          <mxGeometry x="-0.0667" y="-3" relative="1" as="geometry">
            <mxPoint x="-3" y="116" as="offset" />
          </mxGeometry>
        </mxCell>
        <mxCell id="Ii5o0wG8CZ3HwWFto0RK-21" style="edgeStyle=orthogonalEdgeStyle;rounded=0;orthogonalLoop=1;jettySize=auto;html=1;" edge="1" parent="1" source="Ii5o0wG8CZ3HwWFto0RK-18" target="Ii5o0wG8CZ3HwWFto0RK-23">
          <mxGeometry relative="1" as="geometry">
            <mxPoint x="565" y="530" as="targetPoint" />
          </mxGeometry>
        </mxCell>
        <mxCell id="Ii5o0wG8CZ3HwWFto0RK-22" value="Não" style="edgeLabel;html=1;align=center;verticalAlign=middle;resizable=0;points=[];" vertex="1" connectable="0" parent="Ii5o0wG8CZ3HwWFto0RK-21">
          <mxGeometry x="-0.0824" y="-2" relative="1" as="geometry">
            <mxPoint as="offset" />
          </mxGeometry>
        </mxCell>
        <mxCell id="Ii5o0wG8CZ3HwWFto0RK-18" value="" style="rhombus;whiteSpace=wrap;html=1;" vertex="1" parent="1">
          <mxGeometry x="540" y="495" width="50" height="30" as="geometry" />
        </mxCell>
        <mxCell id="Ii5o0wG8CZ3HwWFto0RK-23" value="" style="shape=line;html=1;strokeWidth=6;strokeColor=#000000;" vertex="1" parent="1">
          <mxGeometry x="540" y="570" width="50" height="10" as="geometry" />
        </mxCell>
        <mxCell id="Ii5o0wG8CZ3HwWFto0RK-24" value="" style="edgeStyle=orthogonalEdgeStyle;html=1;verticalAlign=bottom;endArrow=open;endSize=8;strokeColor=#000000;rounded=0;entryX=0.5;entryY=0;entryDx=0;entryDy=0;" edge="1" source="Ii5o0wG8CZ3HwWFto0RK-23" parent="1" target="Ii5o0wG8CZ3HwWFto0RK-25">
          <mxGeometry relative="1" as="geometry">
            <mxPoint x="565" y="580" as="targetPoint" />
            <Array as="points">
              <mxPoint x="565" y="520" />
            </Array>
          </mxGeometry>
        </mxCell>
        <mxCell id="Ii5o0wG8CZ3HwWFto0RK-32" style="edgeStyle=orthogonalEdgeStyle;rounded=0;orthogonalLoop=1;jettySize=auto;html=1;exitX=0.5;exitY=1;exitDx=0;exitDy=0;" edge="1" parent="1" source="Ii5o0wG8CZ3HwWFto0RK-25">
          <mxGeometry relative="1" as="geometry">
            <mxPoint x="565" y="630" as="targetPoint" />
          </mxGeometry>
        </mxCell>
        <mxCell id="Ii5o0wG8CZ3HwWFto0RK-25" value="" style="ellipse;html=1;shape=endState;fillColor=strokeColor;" vertex="1" parent="1">
          <mxGeometry x="550" y="610" width="30" height="30" as="geometry" />
        </mxCell>
        <mxCell id="Ii5o0wG8CZ3HwWFto0RK-31" style="edgeStyle=orthogonalEdgeStyle;rounded=0;orthogonalLoop=1;jettySize=auto;html=1;exitX=0.5;exitY=1;exitDx=0;exitDy=0;" edge="1" parent="1" source="Ii5o0wG8CZ3HwWFto0RK-28" target="Ii5o0wG8CZ3HwWFto0RK-10">
          <mxGeometry relative="1" as="geometry" />
        </mxCell>
        <mxCell id="Ii5o0wG8CZ3HwWFto0RK-28" value="registra o voto&amp;nbsp;" style="rounded=1;whiteSpace=wrap;html=1;" vertex="1" parent="1">
          <mxGeometry x="210" y="400" width="120" height="60" as="geometry" />
        </mxCell>
      </root>
    </mxGraphModel>
  </diagram>
</mxfile>
